<svg width="16" height="15" viewBox="0 0 16 15" fill="none" xmlns="http://www.w3.org/2000/svg">
<path d="M8.10052 3.65177C5.971 3.65177 4.25237 5.37044 4.25237 7.5C4.25237 9.62956 5.971 11.3482 8.10052 11.3482C10.23 11.3482 11.9487 9.62956 11.9487 7.5C11.9487 5.37044 10.23 3.65177 8.10052 3.65177ZM8.10052 10.0011C6.72337 10.0011 5.5995 8.87718 5.5995 7.5C5.5995 6.12282 6.72337 4.99894 8.10052 4.99894C9.47768 4.99894 10.6015 6.12282 10.6015 7.5C10.6015 8.87718 9.47768 10.0011 8.10052 10.0011ZM12.1063 2.59731C11.6091 2.59731 11.2076 2.99883 11.2076 3.49604C11.2076 3.99326 11.6091 4.39478 12.1063 4.39478C12.6035 4.39478 13.005 3.99513 13.005 3.49604C13.0051 3.37798 12.982 3.26105 12.9369 3.15194C12.8918 3.04283 12.8256 2.9437 12.7421 2.86021C12.6586 2.77673 12.5595 2.71054 12.4504 2.66542C12.3413 2.62031 12.2243 2.59716 12.1063 2.59731ZM15.6017 7.5C15.6017 6.4643 15.6111 5.43798 15.5529 4.40416C15.4948 3.20335 15.2208 2.13763 14.3428 1.25953C13.4628 0.379564 12.399 0.107505 11.1982 0.049341C10.1625 -0.00882328 9.1362 0.000558085 8.1024 0.000558085C7.06672 0.000558085 6.04042 -0.00882328 5.00662 0.049341C3.80583 0.107505 2.74013 0.38144 1.86205 1.25953C0.982096 2.1395 0.710042 3.20335 0.651879 4.40416C0.593716 5.43986 0.603097 6.46618 0.603097 7.5C0.603097 8.53382 0.593716 9.56202 0.651879 10.5958C0.710042 11.7967 0.983972 12.8624 1.86205 13.7405C2.742 14.6204 3.80583 14.8925 5.00662 14.9507C6.0423 15.0088 7.06859 14.9994 8.1024 14.9994C9.13808 14.9994 10.1644 15.0088 11.1982 14.9507C12.399 14.8925 13.4647 14.6186 14.3428 13.7405C15.2227 12.8605 15.4948 11.7967 15.5529 10.5958C15.613 9.56202 15.6017 8.5357 15.6017 7.5ZM13.9506 11.9242C13.8137 12.2657 13.6485 12.5209 13.384 12.7836C13.1194 13.0481 12.8662 13.2132 12.5247 13.3502C11.5378 13.7423 9.19437 13.6542 8.10052 13.6542C7.00668 13.6542 4.66139 13.7423 3.67449 13.3521C3.33302 13.2151 3.07785 13.05 2.81518 12.7854C2.55063 12.5209 2.38552 12.2676 2.24855 11.9261C1.8583 10.9373 1.94648 8.59386 1.94648 7.5C1.94648 6.40614 1.8583 4.0608 2.24855 3.07388C2.38552 2.7324 2.55063 2.47723 2.81518 2.21455C3.07972 1.95188 3.33302 1.78489 3.67449 1.64792C4.66139 1.25766 7.00668 1.34584 8.10052 1.34584C9.19437 1.34584 11.5397 1.25766 12.5266 1.64792C12.868 1.78489 13.1232 1.95 13.3859 2.21455C13.6504 2.47911 13.8155 2.7324 13.9525 3.07388C14.3428 4.0608 14.2546 6.40614 14.2546 7.5C14.2546 8.59386 14.3427 10.9373 13.9506 11.9242Z" fill="#FAFAFA"/>
</svg>
