<svg width="18" height="15" viewBox="0 0 18 15" fill="none" xmlns="http://www.w3.org/2000/svg">
<path d="M17.6025 1.78181C16.9774 2.07471 16.297 2.28551 15.5963 2.36761C16.3238 1.89816 16.8687 1.15652 17.1286 0.281814C16.4458 0.722914 15.6979 1.03222 14.918 1.19601C14.592 0.817523 14.1978 0.516 13.7598 0.310233C13.3219 0.104466 12.8496 -0.00113561 12.3724 9.20947e-06C10.4417 9.20947e-06 8.88904 1.69971 8.88904 3.78551C8.88904 4.07841 8.92173 4.37131 8.97485 4.65311C6.08397 4.48891 3.50568 2.98891 1.79158 0.692316C1.47925 1.27171 1.31558 1.93143 1.3176 2.60282C1.3176 3.91643 1.93255 5.07471 2.8703 5.75592C2.31767 5.73229 1.77798 5.56731 1.29512 5.27441V5.32101C1.29512 7.16051 2.49234 8.68492 4.08794 9.03551C3.78835 9.12003 3.48015 9.16327 3.17062 9.16421C2.94384 9.16421 2.72933 9.1398 2.51277 9.10651C2.95406 10.6065 4.23912 11.696 5.76935 11.7315C4.57213 12.75 3.07255 13.3491 1.44426 13.3491C1.15211 13.3491 0.882433 13.338 0.602539 13.3025C2.14706 14.3787 3.97966 15 5.95322 15C12.3601 15 15.866 9.23521 15.866 4.23152C15.866 4.06731 15.866 3.90311 15.8558 3.73891C16.534 3.19971 17.1286 2.53181 17.6025 1.78181Z" fill="#FAFAFA"/>
</svg>
